<?xml version="1.0" encoding="UTF-8" standalone="no"?>
<!-- Created with Inkscape (http://www.inkscape.org/) -->

<svg
   xmlns:dc="http://purl.org/dc/elements/1.1/"
   xmlns:cc="http://creativecommons.org/ns#"
   xmlns:rdf="http://www.w3.org/1999/02/22-rdf-syntax-ns#"
   xmlns:svg="http://www.w3.org/2000/svg"
   xmlns="http://www.w3.org/2000/svg"
   xmlns:xlink="http://www.w3.org/1999/xlink"
   xmlns:sodipodi="http://sodipodi.sourceforge.net/DTD/sodipodi-0.dtd"
   xmlns:inkscape="http://www.inkscape.org/namespaces/inkscape"
   width="785.07465"
   height="415.42944"
   id="svg2"
   version="1.1"
   inkscape:version="0.48.1 "
   sodipodi:docname="ovni.svg">
  <defs
     id="defs4">
    <linearGradient
       id="linearGradient3833">
      <stop
         style="stop-color:#004067;stop-opacity:1;"
         offset="0"
         id="stop3835" />
      <stop
         style="stop-color:#000000;stop-opacity:1;"
         offset="1"
         id="stop3837" />
    </linearGradient>
    <linearGradient
       id="linearGradient3039">
      <stop
         style="stop-color:#e6e6e6;stop-opacity:1;"
         offset="0"
         id="stop3041" />
      <stop
         style="stop-color:#1a1a1a;stop-opacity:1"
         offset="1"
         id="stop3043" />
    </linearGradient>
    <linearGradient
       inkscape:collect="always"
       xlink:href="#linearGradient3039"
       id="linearGradient3045"
       x1="388.84174"
       y1="571.60992"
       x2="386.42667"
       y2="500.89511"
       gradientUnits="userSpaceOnUse" />
    <radialGradient
       inkscape:collect="always"
       xlink:href="#linearGradient3833"
       id="radialGradient3839"
       cx="485.71429"
       cy="366.42877"
       fx="485.71429"
       fy="366.42877"
       r="368.57135"
       gradientTransform="matrix(-1.1162793,1.0775196,-0.57471676,-0.59539001,1238.4999,84.306362)"
       gradientUnits="userSpaceOnUse" />
    <linearGradient
       inkscape:collect="always"
       xlink:href="#linearGradient3039"
       id="linearGradient3850"
       gradientUnits="userSpaceOnUse"
       x1="388.84174"
       y1="571.60992"
       x2="386.42667"
       y2="500.89511" />
  </defs>
  <sodipodi:namedview
     id="base"
     pagecolor="#ffffff"
     bordercolor="#666666"
     borderopacity="1.0"
     inkscape:pageopacity="0.0"
     inkscape:pageshadow="2"
     inkscape:zoom="0.70710678"
     inkscape:cx="345.60405"
     inkscape:cy="261.15353"
     inkscape:document-units="px"
     inkscape:current-layer="layer1"
     showgrid="false"
     inkscape:window-width="1374"
     inkscape:window-height="881"
     inkscape:window-x="62"
     inkscape:window-y="-4"
     inkscape:window-maximized="1"
     fit-margin-top="10"
     fit-margin-left="10"
     fit-margin-right="10"
     fit-margin-bottom="10" />
  <metadata
     id="metadata7">
    <rdf:RDF>
      <cc:Work
         rdf:about="">
        <dc:format>image/svg+xml</dc:format>
        <dc:type
           rdf:resource="http://purl.org/dc/dcmitype/StillImage" />
        <dc:title></dc:title>
      </cc:Work>
    </rdf:RDF>
  </metadata>
  <g
     inkscape:label="Layer 1"
     inkscape:groupmode="layer"
     id="layer1"
     transform="translate(-29.395949,-412.22026)">
    <g
       id="g3861">
      <path
         sodipodi:nodetypes="cccccccccccccccccccccccccccc"
         inkscape:connector-curvature="0"
         id="path2995"
         d="m 362.9587,641.29813 c -6.57246,1.31097 -10.90274,9.85973 -8.42573,15.91175 0.47032,1.82922 0.23984,1.74705 -2.45588,2.38995 -8.942,3.20146 -13.73393,17.98834 -3.83118,22.81711 0.44913,0.172 0.90523,0.31735 1.35637,0.43763 -1.10494,4.35487 -2.31521,8.65139 -6.00017,11.45576 -9.83434,4.38555 1.8581,5.39088 6.75031,2.87495 9.3395,0.90489 3.17815,12.18923 0.0467,16.7072 6.63173,0.37338 13.56763,-8.4239 21.2624,-3.87319 6.9859,2.94467 13.96348,5.91192 21.32121,7.79802 -1.92563,3.44736 -0.91872,8.79704 4.1063,3.91109 0.59326,-0.50859 1.15427,-1.21143 1.52908,-1.96322 4.93588,3.40128 5.18864,11.33029 4.19717,16.92893 4.76308,4.99586 7.12121,-5.89271 7.47938,-9.60475 0.9284,-5.39222 6.03684,-8.09997 9.0271,-11.9738 0.14509,1.47053 0.33294,2.95221 0.73741,4.38216 1.55682,8.59336 11.69492,16.6739 20.11486,11.59046 7.59205,-7.40057 -5.09441,-2.23498 -8.89374,-1.15888 -7.9526,-1.67605 -7.9703,-10.3861 -10.6763,-16.85084 0.7323,-1.5141 1.08085,-3.23787 0.77706,-5.34501 0.42456,-11.27875 -6.79445,-20.97542 -15.64397,-27.21444 -8.04923,-4.16617 -16.64106,-7.65649 -25.51202,-9.86731 3.90727,-2.34417 16.20201,-15.28303 3.01701,-7.11918 -3.43818,1.33134 -7.68943,2.23206 -11.66639,1.99858 -0.31642,-0.10909 -0.65635,-0.20459 -0.98748,-0.29557 -0.47598,-4.93489 -4.54874,-5.54896 -8.76821,-5.93942 -0.46123,-0.21299 -0.94217,-0.38152 -1.41451,-0.53415 -3.38705,-6.12232 -3.99478,-9.71147 2.55321,-17.46382 z"
         style="fill:#000000;stroke:none" />
      <path
         sodipodi:nodetypes="sssss"
         inkscape:connector-curvature="0"
         id="path2991"
         d="m 391.74978,491.8449 c 14.20784,53.02438 -47.8734,44.72914 -118.72496,63.71376 -70.85156,18.98462 -123.64337,58.06001 -137.85121,5.03562 -14.20784,-53.02439 31.71095,-111.39921 102.56251,-130.38383 70.85156,-18.98462 139.80582,8.61006 154.01366,61.63445 z"
         style="fill:#1a1a1a;fill-opacity:1;stroke:#333333;stroke-width:4" />
      <path
         transform="matrix(0.96592583,-0.25881905,0.29656348,1.10679,-261.32415,52.899253)"
         d="m 608.57143,524.50507 a 221.42857,51.42857 0 1 1 -442.85715,0 221.42857,51.42857 0 1 1 442.85715,0 z"
         sodipodi:ry="51.42857"
         sodipodi:rx="221.42857"
         sodipodi:cy="524.50507"
         sodipodi:cx="387.14285"
         id="path2989"
         style="fill:#1a1a1a;fill-opacity:1;stroke:#333333;stroke-width:3.73679495"
         sodipodi:type="arc" />
      <path
         sodipodi:type="arc"
         style="fill:#b3b3b3;fill-opacity:1;stroke:none"
         id="path3035"
         sodipodi:cx="386.07144"
         sodipodi:cy="521.29077"
         sodipodi:rx="93.214287"
         sodipodi:ry="24.642857"
         d="m 479.28573,521.29077 a 93.214287,24.642857 0 1 1 -186.42858,0 93.214287,24.642857 0 1 1 186.42858,0 z"
         transform="matrix(1.0905489,-0.2922117,0.2922117,1.0905489,-300.59268,89.197032)" />
      <path
         transform="matrix(0.99298357,-0.25881905,0.26606915,0.96592583,-249.29762,143.26994)"
         d="m 479.28573,521.29077 a 93.214287,24.642857 0 1 1 -186.42858,0 93.214287,24.642857 0 1 1 186.42858,0 z"
         sodipodi:ry="24.642857"
         sodipodi:rx="93.214287"
         sodipodi:cy="521.29077"
         sodipodi:cx="386.07144"
         id="path2993"
         style="fill:url(#linearGradient3850);fill-opacity:1;stroke:none"
         sodipodi:type="arc" />
      <path
         sodipodi:nodetypes="ccccc"
         inkscape:connector-curvature="0"
         id="rect3047"
         d="M 180.66666,572.31834 C 171.466,540.23148 344.45005,493.56361 363.67721,520.46863 l 252.99648,294.70161 -303.08305,-0.0925 z"
         style="opacity:0.5;fill:#0062ff;fill-opacity:1;stroke:none" />
      <path
         inkscape:connector-curvature="0"
         id="path3819"
         d="m 41.416254,800.93597 c 7.137116,-4.28431 -6.321949,-14.8587 4.04061,-5.15253 8.827781,4.48079 19.394843,11.63469 16.162441,1.98174 2.359704,-3.59283 26.933271,7.00436 23.233509,0.98116 -2.412556,-8.05554 14.069432,0.26269 21.213206,2.18963 11.22498,2.80552 1.47602,-9.72658 19.19289,-4.35983 8.7486,1.33904 30.10189,8.1672 21.21321,0 8.95822,-5.1885 29.6824,10.68485 35.35533,0 13.95514,-5.18478 20.93736,8.93702 30.54093,2.6817 18.46336,-7.76636 22.39226,-1.81219 16.93624,5.24527 10.91298,-5.22309 5.36711,-10.82108 21.21321,-2.77444 11.59205,4.24689 50.11268,10.79295 32.32488,-0.39635 -9.12092,-9.36561 13.42238,-0.71681 21.2132,1.5854 8.00324,-4.49503 15.0003,-5.50776 23.23351,-0.39635 6.37184,-6.13194 15.1949,4.19633 21.05136,-1.24505 9.08522,-2.62136 16.9863,4.40333 27.43596,-0.34035 12.59174,-1.02639 19.87559,2.21542 28.43568,-1.61926 9.76875,5.73659 21.47007,-2.27522 31.16332,1.22292 10.19655,4.59741 21.37613,4.10621 25.25382,-1.98175 9.87475,-1.1907 24.09091,6.05996 24.24366,0 9.25456,-0.71247 30.77605,9.00244 35.35534,1.5854 6.92664,-7.40861 25.63002,4.86874 34.34518,0.79269 3.86867,-4.11392 13.62903,1.23915 22.22336,0.39635 5.0967,-8.84525 25.65689,6.38457 36.36549,-0.39635 13.35797,-1.82303 23.23993,2.4801 35.35534,0 10.47092,1.16183 21.40147,4.06354 32.32488,1.18905 12.17766,-0.42801 24.31327,1.05391 36.11413,0.14608 14.95388,-1.15189 32.19488,-0.25856 48.12469,-0.54243 11.55107,0.22873 24.08229,-0.47099 34.95918,0.39635 16.00254,5.37314 -15.61906,5.6244 -27.29122,6.50632 -26.37153,1.9857 -53.32254,3.8576 -80.7951,3.4024 -23.16596,1.64604 -23.5081,0.15262 -49.49225,2.19773 -25.02603,1.41328 -50.37793,1.49512 -75.29321,2.50092 -41.18227,1.61325 -83.10245,0.54074 -124.63806,0.85024 -49.52512,-3.6e-4 -99.05361,3.9e-4 -148.57658,0 -21.21911,-1.14429 -23.77083,-1.26086 -43.1048,-1.18905 -29.86631,-1.48085 -59.84855,-2.62552 -89.73008,-3.93941 -31.06494,-2.91179 -63.408658,-0.4122 -94.449442,-3.59122 -11.243429,-1.28187 -22.514592,-2.17593 -27.274119,-5.94523 l 2.020305,-1.98175 0,0 z"
         style="fill:#1a1a1a;stroke:none" />
    </g>
  </g>
</svg>
